<svg width="22" height="25" viewBox="0 0 22 25" fill="none" xmlns="http://www.w3.org/2000/svg">
<path fill-rule="evenodd" clip-rule="evenodd" d="M16.8829 8.64158C16.2069 8.64158 15.5628 8.79246 14.9753 9.06469C15.5269 8.17406 15.8506 7.09509 15.8506 5.93147C15.8506 2.87818 13.6266 0.402954 10.8833 0.402954C8.14006 0.402954 5.91615 2.87818 5.91615 5.93147C5.91615 7.03933 6.21006 8.07015 6.71415 8.93511C6.21295 8.74581 5.67627 8.64158 5.11758 8.64158C2.3742 8.64158 0.150391 11.1168 0.150391 14.1701C0.150392 17.2234 2.3742 19.6986 5.11758 19.6986C5.73713 19.6986 6.32976 19.5713 6.87673 19.3406C6.87663 19.3418 9.18842 18.647 10.7081 15.5685L10.7081 17.4221C10.7081 17.4221 9.92892 23.265 4.43582 23.9046H3.55918L3.55918 24.8151H18.5192L18.5192 23.9046H17.6427C12.1496 23.265 11.3703 17.4221 11.3703 17.4221L11.3703 15.6933C11.6534 16.387 13.2183 19.779 16.7353 19.6948C16.7845 19.696 16.8334 19.6986 16.8829 19.6986C19.6263 19.6986 21.8501 17.2234 21.8501 14.1701C21.8501 11.1168 19.6263 8.64158 16.8829 8.64158Z" fill="url(#paint0_linear_206_4110)"/>
<defs>
<linearGradient id="paint0_linear_206_4110" x1="11.0003" y1="0.402954" x2="11.0003" y2="24.8151" gradientUnits="userSpaceOnUse">
<stop stop-color="#EFB155"/>
<stop offset="1" stop-color="#EFAB53"/>
</linearGradient>
</defs>
</svg>
