<svg width="22" height="25" viewBox="0 0 22 25" fill="none" xmlns="http://www.w3.org/2000/svg">
<path fill-rule="evenodd" clip-rule="evenodd" d="M15.5372 19.5359C19.5478 19.5877 22.015 16.6365 20.6579 13.5302C19.3008 10.4237 17.9479 9.7248 15.8176 7.47266C13.6863 5.22052 10.5871 1.32459 10.6017 0.40564C10.6174 1.32459 7.64589 5.22052 5.51454 7.47266C3.38424 9.7248 2.0324 10.4237 0.674275 13.5302C-0.6828 16.6365 1.78546 19.5877 5.79496 19.5359C8.54782 19.5003 9.78666 17.684 10.292 16.5484L10.292 18.0346C10.292 18.0346 9.41312 23.3956 3.21055 23.9824L2.22178 23.9824L2.22178 24.8178L19.1114 24.8178L19.1114 23.9824L18.1216 23.9824C11.9201 23.3956 11.0401 18.0346 11.0401 18.0346L11.0401 16.7436C11.6355 17.8804 12.9371 19.5023 15.5372 19.5359Z" fill="url(#paint0_linear_206_4094)"/>
<defs>
<linearGradient id="paint0_linear_206_4094" x1="10.6661" y1="0.40564" x2="10.6661" y2="24.8178" gradientUnits="userSpaceOnUse">
<stop stop-color="#EFB155"/>
<stop offset="1" stop-color="#EFAB53"/>
</linearGradient>
</defs>
</svg>
