<svg width="32" height="31" viewBox="0 0 32 31" fill="none" xmlns="http://www.w3.org/2000/svg">
<ellipse cx="15.7833" cy="15.1807" rx="15.3624" ry="15.1851" fill="#201F25"/>
<g clip-path="url(#clip0_211_4111)">
<ellipse cx="15.7831" cy="15.1806" rx="12.5693" ry="12.4855" fill="#141318"/>
<mask id="mask0_211_4111" style="mask-type:alpha" maskUnits="userSpaceOnUse" x="3" y="2" width="26" height="26">
<ellipse cx="15.7831" cy="15.1806" rx="12.5693" ry="12.4855" fill="#141318"/>
</mask>
<g mask="url(#mask0_211_4111)">
<rect x="9.09277" y="26.3164" width="13.4884" height="2.02468" fill="url(#paint0_linear_211_4111)"/>
</g>
<g clip-path="url(#clip1_211_4111)">
<path d="M16.8204 15.5462C16.8204 15.8445 16.702 16.1307 16.4912 16.3416C16.2804 16.5525 15.9945 16.671 15.6964 16.671H15.2018C15.09 16.671 14.9828 16.6266 14.9037 16.5475C14.8247 16.4684 14.7803 16.3611 14.7803 16.2492C14.7803 16.1374 14.8247 16.0301 14.9037 15.951C14.9828 15.8719 15.09 15.8274 15.2018 15.8274H15.6964C15.7709 15.8274 15.8424 15.7978 15.8951 15.7451C15.9478 15.6923 15.9774 15.6208 15.9774 15.5462C15.9774 15.4716 15.9478 15.4001 15.8951 15.3474C15.8424 15.2946 15.7709 15.265 15.6964 15.265H15.2748C15.1635 15.2636 15.0571 15.2187 14.9784 15.1399C14.8997 15.0611 14.8548 14.9546 14.8533 14.8432V13.4372C14.8548 13.3258 14.8997 13.2193 14.9784 13.1405C15.0571 13.0617 15.1635 13.0168 15.2748 13.0154H16.3989C16.5107 13.0154 16.6179 13.0598 16.6969 13.1389C16.776 13.218 16.8204 13.3253 16.8204 13.4372C16.8204 13.5491 16.776 13.6563 16.6969 13.7355C16.6179 13.8146 16.5107 13.859 16.3989 13.859H15.8369C15.7996 13.859 15.7639 13.8738 15.7375 13.9002C15.7112 13.9265 15.6964 13.9623 15.6964 13.9996V14.2808C15.6961 14.3153 15.7086 14.3488 15.7314 14.3747C15.7542 14.4006 15.7857 14.4173 15.82 14.4214C16.0962 14.452 16.3513 14.5839 16.536 14.7916C16.7208 14.9993 16.8221 15.2682 16.8204 15.5462Z" fill="url(#paint1_linear_211_4111)"/>
<path d="M15.837 8.09424C14.5031 8.09424 13.1992 8.49006 12.0901 9.23164C10.981 9.97322 10.1166 11.0273 9.60615 12.2605C9.0957 13.4937 8.96214 14.8507 9.22236 16.1598C9.48259 17.469 10.1249 18.6715 11.0681 19.6154C12.0113 20.5592 13.213 21.202 14.5212 21.4624C15.8295 21.7228 17.1855 21.5892 18.4179 21.0784C19.6502 20.5676 20.7035 19.7025 21.4445 18.5927C22.1856 17.4828 22.5811 16.178 22.5811 14.8432C22.5811 13.0532 21.8706 11.3366 20.6058 10.071C19.341 8.80528 17.6256 8.09424 15.837 8.09424ZM18.5515 10.102C18.5596 10.082 18.5725 10.0642 18.5892 10.0505C18.6059 10.0367 18.6258 10.0274 18.647 10.0233C18.6851 10.0091 18.727 10.0091 18.7651 10.0233C19.5347 10.4953 20.1818 11.1429 20.6534 11.913C20.6677 11.9511 20.6677 11.993 20.6534 12.0311C20.6477 12.0503 20.6377 12.0679 20.624 12.0826C20.6104 12.0972 20.5935 12.1085 20.5748 12.1155L18.9955 12.796C18.9656 12.8061 18.9333 12.8067 18.9031 12.7976C18.8729 12.7886 18.8462 12.7703 18.8269 12.7454C18.5848 12.3962 18.2822 12.0934 17.9333 11.8511C17.9084 11.8318 17.8901 11.8051 17.881 11.7749C17.872 11.7446 17.8726 11.7123 17.8827 11.6824L18.5515 10.102ZM15.837 9.50026C15.9481 9.50026 16.0568 9.53325 16.1492 9.59505C16.2416 9.65685 16.3137 9.74468 16.3562 9.84745C16.3987 9.95022 16.4099 10.0633 16.3882 10.1724C16.3665 10.2815 16.313 10.3817 16.2344 10.4604C16.1558 10.539 16.0556 10.5926 15.9466 10.6143C15.8376 10.636 15.7246 10.6248 15.6219 10.5823C15.5192 10.5397 15.4314 10.4676 15.3697 10.3751C15.3079 10.2826 15.2749 10.1739 15.2749 10.0627C15.2749 9.91351 15.3342 9.77046 15.4396 9.66499C15.545 9.55952 15.6879 9.50026 15.837 9.50026ZM12.9201 10.0627C12.9582 10.0484 13.0001 10.0484 13.0381 10.0627C13.0573 10.0684 13.0749 10.0785 13.0895 10.0921C13.1042 10.1058 13.1154 10.1227 13.1224 10.1414L13.7912 11.6824C13.8014 11.7123 13.8019 11.7446 13.7929 11.7749C13.7838 11.8051 13.7656 11.8318 13.7406 11.8511C13.3918 12.0934 13.0891 12.3962 12.847 12.7454C12.8277 12.7703 12.801 12.7886 12.7708 12.7976C12.7406 12.8067 12.7083 12.8061 12.6784 12.796L11.0992 12.1267C11.0791 12.1186 11.0614 12.1057 11.0477 12.089C11.0339 12.0723 11.0246 12.0524 11.0205 12.0311C11.0063 11.993 11.0063 11.9511 11.0205 11.913C11.4967 11.1457 12.1477 10.502 12.9201 10.0346V10.0627ZM10.4978 14.8432C10.4978 14.7319 10.5308 14.6232 10.5925 14.5307C10.6543 14.4382 10.7421 14.3661 10.8448 14.3236C10.9475 14.281 11.0605 14.2699 11.1695 14.2916C11.2785 14.3133 11.3786 14.3668 11.4572 14.4455C11.5358 14.5241 11.5894 14.6243 11.611 14.7334C11.6327 14.8425 11.6216 14.9556 11.5791 15.0584C11.5365 15.1612 11.4645 15.249 11.3721 15.3108C11.2796 15.3726 11.171 15.4056 11.0598 15.4056C10.9108 15.4056 10.7678 15.3463 10.6624 15.2408C10.557 15.1354 10.4978 14.9923 10.4978 14.8432ZM13.1224 19.5843C13.1154 19.603 13.1042 19.6199 13.0895 19.6336C13.0749 19.6472 13.0573 19.6573 13.0381 19.663C13.0001 19.6773 12.9582 19.6773 12.9201 19.663C12.1505 19.191 11.5034 18.5435 11.0317 17.7733C11.0175 17.7352 11.0175 17.6933 11.0317 17.6552C11.0374 17.636 11.0475 17.6184 11.0611 17.6038C11.0748 17.5891 11.0917 17.5779 11.1104 17.5709L12.6897 16.9016C12.7195 16.8914 12.7518 16.8909 12.7821 16.8999C12.8123 16.909 12.8389 16.9273 12.8583 16.9522C13.1003 17.3013 13.403 17.6042 13.7519 17.8464C13.7768 17.8658 13.7951 17.8925 13.8041 17.9227C13.8132 17.953 13.8126 17.9853 13.8025 18.0152L13.1224 19.5843ZM15.837 20.1861C15.7258 20.1861 15.6171 20.1531 15.5247 20.0913C15.4323 20.0295 15.3603 19.9416 15.3177 19.8389C15.2752 19.7361 15.2641 19.623 15.2857 19.5139C15.3074 19.4048 15.361 19.3046 15.4396 19.226C15.5182 19.1473 15.6183 19.0938 15.7273 19.0721C15.8363 19.0504 15.9493 19.0615 16.052 19.1041C16.1547 19.1466 16.2425 19.2187 16.3043 19.3112C16.366 19.4037 16.399 19.5124 16.399 19.6237C16.399 19.7728 16.3398 19.9159 16.2344 20.0213C16.129 20.1268 15.986 20.1861 15.837 20.1861ZM15.837 17.374C15.3368 17.374 14.8478 17.2256 14.4319 16.9475C14.016 16.6694 13.6918 16.2741 13.5004 15.8117C13.309 15.3492 13.2589 14.8404 13.3565 14.3494C13.4541 13.8585 13.6949 13.4075 14.0486 13.0536C14.4023 12.6996 14.853 12.4586 15.3436 12.3609C15.8342 12.2633 16.3427 12.3134 16.8048 12.505C17.2669 12.6965 17.6619 13.0209 17.9398 13.4371C18.2177 13.8533 18.366 14.3426 18.366 14.8432C18.3645 15.5139 18.0976 16.1568 17.6236 16.6311C17.1497 17.1054 16.5073 17.3725 15.837 17.374ZM18.7538 19.6518C18.7158 19.666 18.6739 19.666 18.6358 19.6518C18.6166 19.6461 18.599 19.636 18.5844 19.6223C18.5698 19.6087 18.5585 19.5918 18.5515 19.573L17.8827 17.9927C17.8726 17.9628 17.872 17.9305 17.881 17.9002C17.8901 17.87 17.9084 17.8433 17.9333 17.8239C18.2822 17.5817 18.5848 17.2788 18.8269 16.9297C18.8462 16.9048 18.8729 16.8865 18.9031 16.8774C18.9333 16.8684 18.9656 16.8689 18.9955 16.8791L20.5748 17.5484C20.5935 17.5554 20.6104 17.5666 20.624 17.5813C20.6377 17.5959 20.6477 17.6135 20.6534 17.6327C20.6677 17.6708 20.6677 17.7127 20.6534 17.7508C20.18 18.5264 19.5288 19.178 18.7538 19.6518ZM20.6141 15.4056C20.5029 15.4056 20.3943 15.3726 20.3019 15.3108C20.2094 15.249 20.1374 15.1612 20.0949 15.0584C20.0523 14.9556 20.0412 14.8425 20.0629 14.7334C20.0846 14.6243 20.1381 14.5241 20.2167 14.4455C20.2953 14.3668 20.3954 14.3133 20.5044 14.2916C20.6135 14.2699 20.7265 14.281 20.8292 14.3236C20.9319 14.3661 21.0196 14.4382 21.0814 14.5307C21.1431 14.6232 21.1761 14.7319 21.1761 14.8432C21.1761 14.9923 21.1169 15.1354 21.0115 15.2408C20.9061 15.3463 20.7631 15.4056 20.6141 15.4056Z" fill="url(#paint2_linear_211_4111)"/>
</g>
</g>
<defs>
<linearGradient id="paint0_linear_211_4111" x1="15.837" y1="26.3164" x2="15.837" y2="28.3411" gradientUnits="userSpaceOnUse">
<stop stop-color="#EFB155"/>
<stop offset="1" stop-color="#EFAB53"/>
</linearGradient>
<linearGradient id="paint1_linear_211_4111" x1="15.8003" y1="13.0154" x2="15.8003" y2="16.671" gradientUnits="userSpaceOnUse">
<stop stop-color="#EFB155"/>
<stop offset="1" stop-color="#EFAB53"/>
</linearGradient>
<linearGradient id="paint2_linear_211_4111" x1="15.837" y1="8.09424" x2="15.837" y2="21.5921" gradientUnits="userSpaceOnUse">
<stop stop-color="#EFB155"/>
<stop offset="1" stop-color="#EFAB53"/>
</linearGradient>
<clipPath id="clip0_211_4111">
<rect width="25.1385" height="24.971" fill="white" transform="translate(3.21387 2.69507)"/>
</clipPath>
<clipPath id="clip1_211_4111">
<rect width="13.4884" height="13.4979" fill="white" transform="translate(9.09277 8.09424)"/>
</clipPath>
</defs>
</svg>
