<svg width="36" height="36" viewBox="0 0 36 36" fill="none" xmlns="http://www.w3.org/2000/svg">
<g clip-path="url(#clip0_192_1084)">
<path d="M7.88403 34.403L18.3375 32.0408L10.2445 9.09448L2.48868 10.7817L1.47705 12.4689L6.19798 33.3906L7.88403 34.403Z" fill="url(#paint0_linear_192_1084)"/>
<path d="M27.7795 3.02048V9.76941L26.4307 11.4566L18.3377 14.4937L16.9888 26.3043L11.9307 25.6294L10.2446 24.2796V3.35793L11.2563 1.33325H26.0935L27.7795 3.02048Z" fill="url(#paint1_linear_192_1084)"/>
<path d="M27.7791 33.7281L34.1861 12.1315L19.0117 7.06982L17.6628 7.74472L11.2559 27.9915V29.6787L25.7559 34.403L27.7791 33.7281Z" fill="url(#paint2_linear_192_1084)"/>
<path d="M10.2734 9.12817L3.27991 10.6372C2.7151 10.7602 2.22212 11.1024 1.90925 11.5888C1.59637 12.0752 1.48917 12.6659 1.61117 13.2313L5.76402 32.4148C5.88688 32.9799 6.22888 33.4733 6.71491 33.7864C7.20093 34.0994 7.79126 34.2068 8.35626 34.0847L18.5513 31.8737" stroke="url(#paint3_linear_192_1084)" stroke-width="1.5" stroke-linecap="round" stroke-linejoin="round"/>
<path d="M33.419 11.3911L19.5914 6.98035C18.8225 6.73508 18.0006 7.16002 17.7554 7.92946L11.3619 28.0013C11.1168 28.7707 11.5414 29.5933 12.3103 29.8386L26.1379 34.2493C26.9068 34.4946 27.7288 34.0697 27.9738 33.3003L34.3675 13.2284C34.6125 12.4589 34.1879 11.6363 33.419 11.3911Z" stroke="url(#paint4_linear_192_1084)" stroke-width="1.5" stroke-linecap="round" stroke-linejoin="round"/>
<path d="M24.1888 16.4585L19.751 19.6214L21.541 24.7715L25.9802 21.6086L24.1888 16.4585Z" fill="url(#paint5_linear_192_1084)" stroke="url(#paint6_linear_192_1084)" stroke-width="1.5" stroke-linecap="round" stroke-linejoin="round"/>
<path d="M27.7143 9.57106V3.60062C27.6925 3.02698 27.4542 2.48295 27.0475 2.07812C26.6407 1.67328 26.0958 1.43773 25.5224 1.41891H12.5934C12.002 1.41084 11.4303 1.63182 10.9979 2.03567C10.5655 2.43952 10.3057 2.99499 10.273 3.58599V23.2155C10.2698 23.751 10.4636 24.2689 10.8174 24.6707C11.1712 25.0726 11.6603 25.3301 12.1916 25.3943" stroke="url(#paint7_linear_192_1084)" stroke-width="1.5" stroke-linecap="round" stroke-linejoin="round"/>
<path d="M5.6715 14.5779C5.36886 14.5779 5.12354 14.3324 5.12354 14.0296C5.12354 13.7267 5.36886 13.4812 5.6715 13.4812" stroke="url(#paint8_linear_192_1084)" stroke-width="1.5"/>
<path d="M5.67188 14.5779C5.97451 14.5779 6.21984 14.3324 6.21984 14.0296C6.21984 13.7267 5.97451 13.4812 5.67188 13.4812" stroke="url(#paint9_linear_192_1084)" stroke-width="1.5"/>
<path d="M14.1969 5.79104C13.8943 5.79104 13.6489 5.54552 13.6489 5.24269C13.6489 4.93984 13.8943 4.69434 14.1969 4.69434" stroke="url(#paint10_linear_192_1084)" stroke-width="1.5"/>
<path d="M14.1968 5.79104C14.4994 5.79104 14.7447 5.54552 14.7447 5.24269C14.7447 4.93984 14.4994 4.69434 14.1968 4.69434" stroke="url(#paint11_linear_192_1084)" stroke-width="1.5"/>
<path d="M20.6744 11.8797C20.3718 11.8797 20.1265 11.6342 20.1265 11.3313C20.1265 11.0285 20.3718 10.783 20.6744 10.783" stroke="url(#paint12_linear_192_1084)" stroke-width="1.5"/>
<path d="M20.6743 11.8797C20.9769 11.8797 21.2223 11.6342 21.2223 11.3313C21.2223 11.0285 20.9769 10.783 20.6743 10.783" stroke="url(#paint13_linear_192_1084)" stroke-width="1.5"/>
<path d="M25.0553 30.4458C24.7527 30.4458 24.5073 30.2003 24.5073 29.8975C24.5073 29.5945 24.7527 29.3491 25.0553 29.3491" stroke="url(#paint14_linear_192_1084)" stroke-width="1.5"/>
<path d="M25.0552 30.4458C25.3579 30.4458 25.6031 30.2003 25.6031 29.8975C25.6031 29.5945 25.3579 29.3491 25.0552 29.3491" stroke="url(#paint15_linear_192_1084)" stroke-width="1.5"/>
</g>
<defs>
<linearGradient id="paint0_linear_192_1084" x1="9.90728" y1="9.09448" x2="9.90728" y2="34.403" gradientUnits="userSpaceOnUse">
<stop stop-color="#EFB155"/>
<stop offset="1" stop-color="#EFAB53"/>
</linearGradient>
<linearGradient id="paint1_linear_192_1084" x1="19.0121" y1="1.33325" x2="19.0121" y2="26.3043" gradientUnits="userSpaceOnUse">
<stop stop-color="#EFB155"/>
<stop offset="1" stop-color="#EFAB53"/>
</linearGradient>
<linearGradient id="paint2_linear_192_1084" x1="22.721" y1="7.06982" x2="22.721" y2="34.403" gradientUnits="userSpaceOnUse">
<stop stop-color="#EFB155"/>
<stop offset="1" stop-color="#EFAB53"/>
</linearGradient>
<linearGradient id="paint3_linear_192_1084" x1="10.0567" y1="9.12817" x2="10.0567" y2="34.1339" gradientUnits="userSpaceOnUse">
<stop stop-color="#24242E"/>
<stop offset="1" stop-color="#131217"/>
</linearGradient>
<linearGradient id="paint4_linear_192_1084" x1="22.8647" y1="6.91089" x2="22.8647" y2="34.3188" gradientUnits="userSpaceOnUse">
<stop stop-color="#24242E"/>
<stop offset="1" stop-color="#131217"/>
</linearGradient>
<linearGradient id="paint5_linear_192_1084" x1="22.8656" y1="16.4585" x2="22.8656" y2="24.7715" gradientUnits="userSpaceOnUse">
<stop stop-color="#EFB155"/>
<stop offset="1" stop-color="#EFAB53"/>
</linearGradient>
<linearGradient id="paint6_linear_192_1084" x1="22.8656" y1="16.4585" x2="22.8656" y2="24.7715" gradientUnits="userSpaceOnUse">
<stop stop-color="#24242E"/>
<stop offset="1" stop-color="#131217"/>
</linearGradient>
<linearGradient id="paint7_linear_192_1084" x1="18.9936" y1="1.4187" x2="18.9936" y2="25.3943" gradientUnits="userSpaceOnUse">
<stop stop-color="#24242E"/>
<stop offset="1" stop-color="#131217"/>
</linearGradient>
<linearGradient id="paint8_linear_192_1084" x1="5.39752" y1="13.4812" x2="5.39752" y2="14.5779" gradientUnits="userSpaceOnUse">
<stop stop-color="#24242E"/>
<stop offset="1" stop-color="#131217"/>
</linearGradient>
<linearGradient id="paint9_linear_192_1084" x1="5.94586" y1="13.4812" x2="5.94586" y2="14.5779" gradientUnits="userSpaceOnUse">
<stop stop-color="#24242E"/>
<stop offset="1" stop-color="#131217"/>
</linearGradient>
<linearGradient id="paint10_linear_192_1084" x1="13.9229" y1="4.69434" x2="13.9229" y2="5.79104" gradientUnits="userSpaceOnUse">
<stop stop-color="#24242E"/>
<stop offset="1" stop-color="#131217"/>
</linearGradient>
<linearGradient id="paint11_linear_192_1084" x1="14.4708" y1="4.69434" x2="14.4708" y2="5.79104" gradientUnits="userSpaceOnUse">
<stop stop-color="#24242E"/>
<stop offset="1" stop-color="#131217"/>
</linearGradient>
<linearGradient id="paint12_linear_192_1084" x1="20.4004" y1="10.783" x2="20.4004" y2="11.8797" gradientUnits="userSpaceOnUse">
<stop stop-color="#EFB155"/>
<stop offset="1" stop-color="#EFAB53"/>
</linearGradient>
<linearGradient id="paint13_linear_192_1084" x1="20.9483" y1="10.783" x2="20.9483" y2="11.8797" gradientUnits="userSpaceOnUse">
<stop stop-color="#EFB155"/>
<stop offset="1" stop-color="#EFAB53"/>
</linearGradient>
<linearGradient id="paint14_linear_192_1084" x1="24.7813" y1="29.3491" x2="24.7813" y2="30.4458" gradientUnits="userSpaceOnUse">
<stop stop-color="#EFB155"/>
<stop offset="1" stop-color="#EFAB53"/>
</linearGradient>
<linearGradient id="paint15_linear_192_1084" x1="25.3292" y1="29.3491" x2="25.3292" y2="30.4458" gradientUnits="userSpaceOnUse">
<stop stop-color="#EFB155"/>
<stop offset="1" stop-color="#EFAB53"/>
</linearGradient>
<clipPath id="clip0_192_1084">
<rect width="35.0698" height="35.0944" fill="white" transform="translate(0.465332 0.320801)"/>
</clipPath>
</defs>
</svg>
