<svg width="31" height="32" viewBox="0 0 31 32" fill="none" xmlns="http://www.w3.org/2000/svg">
<ellipse cx="15.5192" cy="15.8557" rx="15.3624" ry="15.1851" fill="#201F25"/>
<ellipse cx="15.519" cy="15.8556" rx="12.5693" ry="12.4855" fill="#141318"/>
<mask id="mask0_192_860" style="mask-type:alpha" maskUnits="userSpaceOnUse" x="2" y="3" width="27" height="26">
<ellipse cx="15.519" cy="15.8556" rx="12.5693" ry="12.4855" fill="#141318"/>
</mask>
<g mask="url(#mask0_192_860)">
<rect x="8.72119" y="26.9917" width="13.4884" height="2.02468" fill="url(#paint0_linear_192_860)"/>
</g>
<g clip-path="url(#clip0_192_860)">
<path d="M14.5916 15.1554C14.4489 15.3356 14.481 15.5978 14.663 15.7382C15.1375 16.0974 15.7928 16.0974 16.2673 15.7382C16.5189 15.5435 16.4656 15.1492 16.1713 15.0285C16.0347 14.9724 15.8786 14.9936 15.7618 15.0839C15.581 15.2 15.3493 15.2 15.1685 15.0839C14.9884 14.9479 14.7331 14.9796 14.5916 15.1554Z" fill="url(#paint1_linear_192_860)"/>
<path d="M16.0147 13.9896C16.0133 14.4129 16.4703 14.6788 16.8372 14.4684C17.0086 14.3701 17.1141 14.1873 17.1134 13.9896C17.1148 13.5664 16.6578 13.3004 16.2909 13.5109C16.1195 13.6092 16.014 13.792 16.0147 13.9896Z" fill="url(#paint2_linear_192_860)"/>
<path d="M13.8174 13.9896C13.816 14.4129 14.273 14.6788 14.64 14.4684C14.8113 14.3701 14.9168 14.1873 14.9162 13.9896C14.9175 13.5664 14.4606 13.3004 14.0936 13.5109C13.9222 13.6092 13.8167 13.792 13.8174 13.9896Z" fill="url(#paint3_linear_192_860)"/>
<path d="M16.8609 17.9261C16.7945 17.9021 16.7205 17.9124 16.6631 17.9536L15.5643 18.4759C15.4871 18.5089 15.3998 18.5089 15.3226 18.4759L14.2238 17.9536C14.1664 17.9124 14.0924 17.9021 14.026 17.9261C13.9576 17.9561 13.9055 18.0142 13.8832 18.0855C13.7349 18.5298 13.7349 19.0102 13.8832 19.4545C13.9055 19.5245 13.9579 19.5809 14.026 19.6084C14.088 19.6407 14.1618 19.6407 14.2238 19.6084L15.3226 19.0861C15.3986 19.0479 15.4883 19.0479 15.5643 19.0861L16.6631 19.6084C16.7251 19.6407 16.7989 19.6407 16.8609 19.6084C16.929 19.5809 16.9813 19.5245 17.0038 19.4545C17.152 19.0102 17.152 18.5298 17.0038 18.0855C16.9814 18.0142 16.9293 17.9561 16.8609 17.9261Z" fill="url(#paint4_linear_192_860)"/>
<path d="M15.4654 17.7008C17.5895 17.7008 19.3113 15.9777 19.3113 13.8523V12.7527C19.3113 9.79009 16.1064 7.93847 13.5426 9.4198C12.3527 10.1072 11.6196 11.3778 11.6196 12.7527V13.8523C11.6196 15.9778 13.3414 17.7009 15.4654 17.7008ZM12.7185 13.3025C12.7213 13.2278 12.7811 13.1679 12.8558 13.1651C13.7332 13.1972 14.5948 12.9253 15.2952 12.3953C15.3935 12.3121 15.5374 12.3121 15.6358 12.3953C16.3361 12.9253 17.1977 13.1972 18.0751 13.1651C18.1498 13.1679 18.2097 13.2278 18.2125 13.3025V13.8523C18.2125 15.9684 15.9233 17.291 14.0919 16.2329C13.2421 15.7419 12.7184 14.8344 12.7185 13.8523V13.3025Z" fill="url(#paint5_linear_192_860)"/>
<path d="M21.4483 18.9543C20.5699 18.2866 19.555 17.821 18.4761 17.5908C18.3135 17.5509 18.1416 17.5873 18.0091 17.6898C17.8794 17.7923 17.8028 17.9478 17.8004 18.1131C17.7483 19.4962 16.8708 20.7126 15.5753 21.1974C15.5077 21.2308 15.4285 21.2308 15.361 21.1974C14.067 20.7095 13.1891 19.4956 13.1304 18.1131C13.1247 17.9516 13.0484 17.8008 12.9217 17.7008C12.7892 17.5983 12.6172 17.5618 12.4546 17.6018C11.3757 17.832 10.3608 18.2975 9.48241 18.9653C9.09507 19.2797 8.87083 19.7527 8.87257 20.2518V21.5493C8.87392 21.9725 9.33258 22.2355 9.69817 22.0228C9.86677 21.9246 9.97075 21.7444 9.97137 21.5493V20.2518C9.96777 20.0844 10.0405 19.9245 10.1691 19.8174C10.4056 19.6394 10.6575 19.483 10.9218 19.3501C10.9585 19.3339 11.0004 19.3339 11.0372 19.3501C11.0763 19.3658 11.1064 19.398 11.1196 19.4381C11.3588 20.2271 11.4936 21.0441 11.5207 21.8682C11.5266 22.0157 11.6479 22.1322 11.7954 22.132H19.1354C19.2829 22.1322 19.4042 22.0157 19.4101 21.8682C19.4371 21.0441 19.572 20.2271 19.8111 19.4381C19.8243 19.398 19.8545 19.3658 19.8935 19.3501C19.9303 19.3339 19.9722 19.3339 20.0089 19.3501C20.2743 19.4918 20.5263 19.6574 20.7616 19.8449C20.8901 19.952 20.963 20.1119 20.9594 20.2792V21.5493C20.9607 21.9725 21.4194 22.2355 21.785 22.0228C21.9536 21.9246 22.0576 21.7444 22.0582 21.5493V20.2518C22.0632 19.7488 21.8387 19.2711 21.4483 18.9543Z" fill="url(#paint6_linear_192_860)"/>
</g>
<defs>
<linearGradient id="paint0_linear_192_860" x1="15.4654" y1="26.9917" x2="15.4654" y2="29.0164" gradientUnits="userSpaceOnUse">
<stop stop-color="#EFB155"/>
<stop offset="1" stop-color="#EFAB53"/>
</linearGradient>
<linearGradient id="paint1_linear_192_860" x1="15.4651" y1="14.9976" x2="15.4651" y2="16.0076" gradientUnits="userSpaceOnUse">
<stop stop-color="#EFB155"/>
<stop offset="1" stop-color="#EFAB53"/>
</linearGradient>
<linearGradient id="paint2_linear_192_860" x1="16.564" y1="13.4373" x2="16.564" y2="14.542" gradientUnits="userSpaceOnUse">
<stop stop-color="#EFB155"/>
<stop offset="1" stop-color="#EFAB53"/>
</linearGradient>
<linearGradient id="paint3_linear_192_860" x1="14.3668" y1="13.4373" x2="14.3668" y2="14.542" gradientUnits="userSpaceOnUse">
<stop stop-color="#EFB155"/>
<stop offset="1" stop-color="#EFAB53"/>
</linearGradient>
<linearGradient id="paint4_linear_192_860" x1="15.4435" y1="17.9133" x2="15.4435" y2="19.6326" gradientUnits="userSpaceOnUse">
<stop stop-color="#EFB155"/>
<stop offset="1" stop-color="#EFAB53"/>
</linearGradient>
<linearGradient id="paint5_linear_192_860" x1="15.4654" y1="8.89844" x2="15.4654" y2="17.7008" gradientUnits="userSpaceOnUse">
<stop stop-color="#EFB155"/>
<stop offset="1" stop-color="#EFAB53"/>
</linearGradient>
<linearGradient id="paint6_linear_192_860" x1="15.4654" y1="17.575" x2="15.4654" y2="22.132" gradientUnits="userSpaceOnUse">
<stop stop-color="#EFB155"/>
<stop offset="1" stop-color="#EFAB53"/>
</linearGradient>
<clipPath id="clip0_192_860">
<rect width="13.4884" height="13.4979" fill="white" transform="translate(8.72119 8.76929)"/>
</clipPath>
</defs>
</svg>
