<svg width="7" height="8" viewBox="0 0 7 8" fill="none" xmlns="http://www.w3.org/2000/svg">
<path fill-rule="evenodd" clip-rule="evenodd" d="M5.22289 2.86236C5.02469 2.86236 4.83582 2.90562 4.66358 2.98368C4.8253 2.7283 4.92022 2.41892 4.92022 2.08526C4.92022 1.20975 4.26814 0.5 3.46381 0.5C2.65947 0.5 2.00742 1.20975 2.00742 2.08526C2.00742 2.40293 2.0936 2.69851 2.24139 2.94653C2.09444 2.89225 1.93709 2.86236 1.77328 2.86236C0.968919 2.86236 0.316895 3.57211 0.316895 4.44762C0.316895 5.32312 0.968919 6.03288 1.77328 6.03288C1.95493 6.03288 2.12869 5.99636 2.28906 5.93021C2.28903 5.93057 2.96685 5.73134 3.41242 4.8486V5.3801C3.41242 5.3801 3.18397 7.05551 1.57339 7.23891H1.31635V7.5H5.70265V7.23891H5.44564C3.83506 7.05551 3.60659 5.3801 3.60659 5.3801V4.88437C3.68958 5.0833 4.14842 6.05592 5.17962 6.03177C5.19402 6.03214 5.20837 6.03288 5.22289 6.03288C6.02725 6.03288 6.67927 5.32312 6.67927 4.44762C6.67927 3.57211 6.02725 2.86236 5.22289 2.86236Z" fill="url(#paint0_linear_248_1262)"/>
<defs>
<linearGradient id="paint0_linear_248_1262" x1="3.49808" y1="0.5" x2="3.49808" y2="7.5" gradientUnits="userSpaceOnUse">
<stop stop-color="#B2B2BC"/>
<stop offset="1" stop-color="#91909E"/>
</linearGradient>
</defs>
</svg>
