<svg width="7" height="8" viewBox="0 0 7 8" fill="none" xmlns="http://www.w3.org/2000/svg">
<path fill-rule="evenodd" clip-rule="evenodd" d="M4.68624 5.98545C5.83623 6.00029 6.54369 5.15407 6.15456 4.26335C5.76543 3.3726 5.3775 3.17219 4.76665 2.52641C4.1555 1.88063 3.26683 0.763502 3.27103 0.5C3.27553 0.763502 2.42347 1.88063 1.81232 2.52641C1.20147 3.17219 0.813841 3.3726 0.424411 4.26335C0.0352807 5.15407 0.743036 6.00029 1.89273 5.98545C2.68209 5.97524 3.03731 5.45443 3.18223 5.12881L3.18223 5.55497C3.18223 5.55497 2.93021 7.09218 1.15167 7.26046L0.868145 7.26046L0.868145 7.5L5.71112 7.5L5.71112 7.26046L5.4273 7.26046C3.64906 7.09218 3.39674 5.55497 3.39674 5.55497L3.39674 5.18477C3.56746 5.51074 3.94068 5.97581 4.68624 5.98545Z" fill="url(#paint0_linear_248_1262)"/>
<defs>
<linearGradient id="paint0_linear_248_1262" x1="3.2895" y1="0.5" x2="3.2895" y2="7.5" gradientUnits="userSpaceOnUse">
<stop stop-color="#B2B2BC"/>
<stop offset="1" stop-color="#91909E"/>
</linearGradient>
</defs>
</svg>
