<svg width="17" height="17" viewBox="0 0 17 17" fill="none" xmlns="http://www.w3.org/2000/svg">
<path d="M8.6612 1.97607C12.3983 1.97607 15.4279 5.0848 15.4279 8.91962C15.4279 12.7544 12.3983 15.8632 8.6612 15.8632C4.92407 15.8632 1.89453 12.7544 1.89453 8.91962H3.24786C3.24786 11.9875 5.6715 14.4745 8.6612 14.4745C11.6509 14.4745 14.0745 11.9875 14.0745 8.91962C14.0745 5.85177 11.6509 3.36478 8.6612 3.36478C6.99399 3.36478 5.50281 4.13818 4.50979 5.35441L5.95453 6.83656H1.89453V2.67043L3.55004 4.36915C4.79068 2.9031 6.62044 1.97607 8.6612 1.97607ZM9.33787 5.44785L9.33773 8.63146L11.532 10.8835L10.5751 11.8655L7.9844 9.20639L7.98453 5.44785H9.33787Z" fill="url(#paint0_linear_192_1156)"/>
<defs>
<linearGradient id="paint0_linear_192_1156" x1="8.6612" y1="1.97607" x2="8.6612" y2="15.8632" gradientUnits="userSpaceOnUse">
<stop stop-color="#B2B2BC"/>
<stop offset="1" stop-color="#91909E"/>
</linearGradient>
</defs>
</svg>
