<svg width="23" height="23" viewBox="0 0 23 23" fill="none" xmlns="http://www.w3.org/2000/svg">
<g clip-path="url(#clip0_192_1135)">
<path d="M13.9164 15.3827L13.3632 13.142C13.3151 12.9647 13.3809 12.7762 13.5292 12.6664L15.3733 11.2945C15.635 11.0917 16.0204 11.2291 16.0924 11.5507L16.6548 13.7914C16.701 13.9706 16.6313 14.1595 16.4796 14.2669L14.6356 15.6388C14.3707 15.82 14.0047 15.6897 13.9164 15.3827Z" fill="url(#paint0_linear_192_1135)"/>
<path d="M9.53669 8.22177C9.3615 7.49011 7.88628 6.72191 7.3792 6.48414C7.28315 6.43993 7.16907 6.46635 7.10258 6.54813C6.76144 6.98713 5.76572 8.3133 5.94091 9.04496C6.09193 9.61352 6.6023 10.0156 7.19485 10.0327C7.29062 10.0426 7.36891 10.1129 7.38846 10.2064L7.58207 11.0205C7.641 11.5452 8.25064 11.8098 8.67933 11.4967C8.92649 11.3162 9.02414 10.9955 8.91893 10.7094L8.72532 9.89551C8.70511 9.80033 8.74525 9.70252 8.82675 9.64856C9.35668 9.38222 9.64587 8.80101 9.53669 8.22177Z" fill="url(#paint1_linear_192_1135)"/>
<path d="M22.6664 9.55709C22.9303 8.84951 22.5557 8.06501 21.8365 7.81937L13.3817 4.82874C13.2546 4.78246 13.1206 4.75773 12.9853 4.75557C12.8798 4.74742 12.7911 4.67407 12.764 4.57261L12.0171 1.33503C11.8738 0.581255 11.1317 0.0932618 10.376 0.255895L1.6814 2.2771C0.921692 2.4225 0.438704 3.1683 0.621076 3.91411L3.38716 15.9865C3.52883 16.601 4.07935 17.0371 4.71486 17.0382C4.81885 17.0517 4.92425 17.0517 5.02833 17.0382L7.25032 16.5352C7.33211 16.5159 7.41786 16.5443 7.4716 16.6084C7.51278 16.6791 7.51278 16.7664 7.4716 16.8371L7.25958 17.4224C7.11715 17.7556 7.11715 18.1319 7.25958 18.465C7.41513 18.791 7.69307 19.0439 8.03402 19.1692L16.4981 22.1781C17.2112 22.4344 17.998 22.0647 18.2499 21.355L22.6664 9.55709ZM5.36946 15.0445C5.31761 15.0721 5.25528 15.0721 5.20352 15.0445C5.14506 15.0134 5.10681 14.9546 5.10209 14.889L2.61263 4.17024C2.59053 4.11441 2.59053 4.0523 2.61263 3.99646C2.65956 3.94962 2.72152 3.92048 2.78782 3.91411L10.0993 2.24965C10.2222 2.21508 10.3489 2.2905 10.376 2.41425L11.298 6.42003C11.312 6.46163 11.312 6.5066 11.298 6.5481L8.53193 14.2396C8.50709 14.3144 8.44381 14.3702 8.36599 14.386L5.36946 15.0445ZM16.9222 20.029C16.898 20.0838 16.8558 20.1289 16.8023 20.1569C16.7462 20.1798 16.6833 20.1798 16.6271 20.1569L9.49083 17.6327C9.36729 17.5941 9.30335 17.459 9.35256 17.3401L13.1235 6.89566C13.1707 6.78043 13.2992 6.72066 13.4186 6.75851L20.5549 9.30097C20.6121 9.32214 20.6586 9.36486 20.684 9.41985C20.707 9.4755 20.707 9.53798 20.684 9.59363L16.9222 20.029Z" fill="url(#paint2_linear_192_1135)"/>
<path d="M4.55812 4.11523C3.84837 4.11523 3.40477 4.87734 3.75969 5.48713C4.11452 6.09681 5.00173 6.09681 5.35665 5.48713C5.4375 5.3481 5.48009 5.19034 5.48009 5.02977C5.48009 4.52472 5.06737 4.11523 4.55812 4.11523Z" fill="url(#paint3_linear_192_1135)"/>
<path d="M15.834 16.9194C15.1243 16.9194 14.6807 17.6816 15.0355 18.2913C15.3904 18.901 16.2776 18.901 16.6325 18.2913C16.7134 18.1523 16.756 17.9945 16.756 17.8341C16.756 17.3289 16.3432 16.9194 15.834 16.9194Z" fill="url(#paint4_linear_192_1135)"/>
<path d="M13.9903 7.77344C13.2805 7.77344 12.8369 8.53555 13.1918 9.14523C13.5467 9.75502 14.4339 9.75502 14.7887 9.14523C14.8697 9.00621 14.9123 8.84854 14.9123 8.68797C14.9123 8.18292 14.4995 7.77344 13.9903 7.77344Z" fill="url(#paint5_linear_192_1135)"/>
</g>
<defs>
<linearGradient id="paint0_linear_192_1135" x1="15.0083" y1="11.1992" x2="15.0083" y2="15.7215" gradientUnits="userSpaceOnUse">
<stop stop-color="#EFB155"/>
<stop offset="1" stop-color="#EFAB53"/>
</linearGradient>
<linearGradient id="paint1_linear_192_1135" x1="7.73998" y1="6.46289" x2="7.73998" y2="11.6311" gradientUnits="userSpaceOnUse">
<stop stop-color="#EFB155"/>
<stop offset="1" stop-color="#EFAB53"/>
</linearGradient>
<linearGradient id="paint2_linear_192_1135" x1="11.6668" y1="0.224609" x2="11.6668" y2="22.2594" gradientUnits="userSpaceOnUse">
<stop stop-color="#EFB155"/>
<stop offset="1" stop-color="#EFAB53"/>
</linearGradient>
<linearGradient id="paint3_linear_192_1135" x1="4.55743" y1="4.11523" x2="4.55743" y2="5.94439" gradientUnits="userSpaceOnUse">
<stop stop-color="#EFB155"/>
<stop offset="1" stop-color="#EFAB53"/>
</linearGradient>
<linearGradient id="paint4_linear_192_1135" x1="15.8333" y1="16.9194" x2="15.8333" y2="18.7486" gradientUnits="userSpaceOnUse">
<stop stop-color="#EFB155"/>
<stop offset="1" stop-color="#EFAB53"/>
</linearGradient>
<linearGradient id="paint5_linear_192_1135" x1="13.9896" y1="7.77344" x2="13.9896" y2="9.60257" gradientUnits="userSpaceOnUse">
<stop stop-color="#EFB155"/>
<stop offset="1" stop-color="#EFAB53"/>
</linearGradient>
<clipPath id="clip0_192_1135">
<rect width="22.6667" height="22.4839" fill="white" transform="translate(0.333496)"/>
</clipPath>
</defs>
</svg>
